PathFileType	4	(X/Y/Z)	C:\Users\Kira\Nextcloud\Documents\MA\Daten\C3D\P01\post\Stand01\marker_experimental.trc																																																																																																																																																																																																																																																																																																																																																																																																																																																																																																																																																																																																																																																																																																																			
DataRate	CameraRate	NumFrames	NumMarkers	Units	OrigDataRate	OrigDataStartFrame	OrigNumFrames																																																																																																																																																																																																																																																																																																																																																																																																																																																																																																																																																																																																																																																																																																															
150	150	2	231	mm	150	75	150																																																																																																																																																																																																																																																																																																																																																																																																																																																																																																																																																																																																																																																																																																															
Frame#	Time	LFHD			LBHD			RFHD			RBHD			C7			T10			CLAV			STRN			RBAK			LSHO			LUPA			LELB			LFRA			LWRB			LWRA			LFIN			RSHO			RUPA			RELB			RFRA			RWRB			RWRA			RFIN			SACR			LASI			RASI			LT1			LT2			LT3			LS1			LS2			LS3			LHEE			LTOE			RT1			RT2			RT3			RS1			RS2			RS3			RHEE			RTOE			PELO			PELA			PELL			PELP			SACO			SACA			SACL			SACP			LFEO			LFEA			LFEL			LFEP			RFEO			RFEA			RFEL			RFEP			LTIO			LTIA			LTIL			LTIP			RTIO			RTIA			RTIL			RTIP			LFOO			LFOA			LFOL			LFOP			RFOO			RFOA			RFOL			RFOP			LTOO			LTOA			LTOL			LTOP			RTOO			RTOA			RTOL			RTOP			HEDO			HEDA			HEDL			HEDP			LCLO			LCLA			LCLL			LCLP			RCLO			RCLA			RCLL			RCLP			TRXO			TRXA			TRXL			TRXP			LHUO			LHUA			LHUL			LHUP			LRAO			LRAA			LRAL			LRAP			LHNO			LHNA			LHNL			LHNP			RHUO			RHUA			RHUL			RHUP			RRAO			RRAA			RRAL			RRAP			RHNO			RHNA			RHNL			RHNP			LPelvisAngles			RPelvisAngles			LFootProgressAngles			RFootProgressAngles			LHipAngles			RHipAngles			LKneeAngles			RKneeAngles			LAnkleAngles			RAnkleAngles			LFFootAngles			RFFootAngles			LAbsAnkleAngle			RAbsAnkleAngle			RNeckAngles			LNeckAngles			RSpineAngles			LSpineAngles			LShoulderAngles			LElbowAngles			LWristAngles			RShoulderAngles			RElbowAngles			RWristAngles			RThoraxAngles			LThoraxAngles			RHeadAngles			LHeadAngles			LHipPower			LKneePower			LAnklePower			RHipPower			RKneePower			RAnklePower			LWaistPower			RWaistPower			LNeckPower			RNeckPower			LShoulderPower			RShoulderPower			LElbowPower			RElbowPower			LWristPower			RWristPower			F_ForcePlate1			F_ForcePlate2			F_ForcePlate3			LGRF			RGRF			LHipForce			RHipForce			LKneeForce			RKneeForce			LAnkleForce			RAnkleForce			LWaistForce			RWaistForce			LNeckForce			RNeckForce			LShoulderForce			RShoulderForce			LElbowForce			RElbowForce			LWristForce			RWristForce			LNormalisedGRF			RNormalisedGRF			LGroundReactionForce			RGroundReactionForce			LHipMoment			RHipMoment			LKneeMoment			RKneeMoment			LAnkleMoment			RAnkleMoment			LWaistMoment			RWaistMoment			LNeckMoment			RNeckMoment			LShoulderMoment			RShoulderMoment			LElbowMoment			RElbowMoment			LWristMoment			RWristMoment			LKNE			RKNE			LANK			RANK			LKJC			RKJC			LAJC			RAJC			LTHI			RTHI			LTIB			RTIB			P_ForcePlate1			P_ForcePlate2			P_ForcePlate3			CentreOfMass			CentreOfMassFloor			funktRKJC			funktLKJC			funktRHIP			funktLHIP			LHJC			RHJC			LHF		
		X1	Y1	Z1	X2	Y2	Z2	X3	Y3	Z3	X4	Y4	Z4	X5	Y5	Z5	X6	Y6	Z6	X7	Y7	Z7	X8	Y8	Z8	X9	Y9	Z9	X10	Y10	Z10	X11	Y11	Z11	X12	Y12	Z12	X13	Y13	Z13	X14	Y14	Z14	X15	Y15	Z15	X16	Y16	Z16	X17	Y17	Z17	X18	Y18	Z18	X19	Y19	Z19	X20	Y20	Z20	X21	Y21	Z21	X22	Y22	Z22	X23	Y23	Z23	X24	Y24	Z24	X25	Y25	Z25	X26	Y26	Z26	X27	Y27	Z27	X28	Y28	Z28	X29	Y29	Z29	X30	Y30	Z30	X31	Y31	Z31	X32	Y32	Z32	X33	Y33	Z33	X34	Y34	Z34	X35	Y35	Z35	X36	Y36	Z36	X37	Y37	Z37	X38	Y38	Z38	X39	Y39	Z39	X40	Y40	Z40	X41	Y41	Z41	X42	Y42	Z42	X43	Y43	Z43	X44	Y44	Z44	X45	Y45	Z45	X46	Y46	Z46	X47	Y47	Z47	X48	Y48	Z48	X49	Y49	Z49	X50	Y50	Z50	X51	Y51	Z51	X52	Y52	Z52	X53	Y53	Z53	X54	Y54	Z54	X55	Y55	Z55	X56	Y56	Z56	X57	Y57	Z57	X58	Y58	Z58	X59	Y59	Z59	X60	Y60	Z60	X61	Y61	Z61	X62	Y62	Z62	X63	Y63	Z63	X64	Y64	Z64	X65	Y65	Z65	X66	Y66	Z66	X67	Y67	Z67	X68	Y68	Z68	X69	Y69	Z69	X70	Y70	Z70	X71	Y71	Z71	X72	Y72	Z72	X73	Y73	Z73	X74	Y74	Z74	X75	Y75	Z75	X76	Y76	Z76	X77	Y77	Z77	X78	Y78	Z78	X79	Y79	Z79	X80	Y80	Z80	X81	Y81	Z81	X82	Y82	Z82	X83	Y83	Z83	X84	Y84	Z84	X85	Y85	Z85	X86	Y86	Z86	X87	Y87	Z87	X88	Y88	Z88	X89	Y89	Z89	X90	Y90	Z90	X91	Y91	Z91	X92	Y92	Z92	X93	Y93	Z93	X94	Y94	Z94	X95	Y95	Z95	X96	Y96	Z96	X97	Y97	Z97	X98	Y98	Z98	X99	Y99	Z99	X100	Y100	Z100	X101	Y101	Z101	X102	Y102	Z102	X103	Y103	Z103	X104	Y104	Z104	X105	Y105	Z105	X106	Y106	Z106	X107	Y107	Z107	X108	Y108	Z108	X109	Y109	Z109	X110	Y110	Z110	X111	Y111	Z111	X112	Y112	Z112	X113	Y113	Z113	X114	Y114	Z114	X115	Y115	Z115	X116	Y116	Z116	X117	Y117	Z117	X118	Y118	Z118	X119	Y119	Z119	X120	Y120	Z120	X121	Y121	Z121	X122	Y122	Z122	X123	Y123	Z123	X124	Y124	Z124	X125	Y125	Z125	X126	Y126	Z126	X127	Y127	Z127	X128	Y128	Z128	X129	Y129	Z129	X130	Y130	Z130	X131	Y131	Z131	X132	Y132	Z132	X133	Y133	Z133	X134	Y134	Z134	X135	Y135	Z135	X136	Y136	Z136	X137	Y137	Z137	X138	Y138	Z138	X139	Y139	Z139	X140	Y140	Z140	X141	Y141	Z141	X142	Y142	Z142	X143	Y143	Z143	X144	Y144	Z144	X145	Y145	Z145	X146	Y146	Z146	X147	Y147	Z147	X148	Y148	Z148	X149	Y149	Z149	X150	Y150	Z150	X151	Y151	Z151	X152	Y152	Z152	X153	Y153	Z153	X154	Y154	Z154	X155	Y155	Z155	X156	Y156	Z156	X157	Y157	Z157	X158	Y158	Z158	X159	Y159	Z159	X160	Y160	Z160	X161	Y161	Z161	X162	Y162	Z162	X163	Y163	Z163	X164	Y164	Z164	X165	Y165	Z165	X166	Y166	Z166	X167	Y167	Z167	X168	Y168	Z168	X169	Y169	Z169	X170	Y170	Z170	X171	Y171	Z171	X172	Y172	Z172	X173	Y173	Z173	X174	Y174	Z174	X175	Y175	Z175	X176	Y176	Z176	X177	Y177	Z177	X178	Y178	Z178	X179	Y179	Z179	X180	Y180	Z180	X181	Y181	Z181	X182	Y182	Z182	X183	Y183	Z183	X184	Y184	Z184	X185	Y185	Z185	X186	Y186	Z186	X187	Y187	Z187	X188	Y188	Z188	X189	Y189	Z189	X190	Y190	Z190	X191	Y191	Z191	X192	Y192	Z192	X193	Y193	Z193	X194	Y194	Z194	X195	Y195	Z195	X196	Y196	Z196	X197	Y197	Z197	X198	Y198	Z198	X199	Y199	Z199	X200	Y200	Z200	X201	Y201	Z201	X202	Y202	Z202	X203	Y203	Z203	X204	Y204	Z204	X205	Y205	Z205	X206	Y206	Z206	X207	Y207	Z207	X208	Y208	Z208	X209	Y209	Z209	X210	Y210	Z210	X211	Y211	Z211	X212	Y212	Z212	X213	Y213	Z213	X214	Y214	Z214	X215	Y215	Z215	X216	Y216	Z216	X217	Y217	Z217	X218	Y218	Z218	X219	Y219	Z219	X220	Y220	Z220	X221	Y221	Z221	X222	Y222	Z222	X223	Y223	Z223	X224	Y224	Z224	X225	Y225	Z225	X226	Y226	Z226	X227	Y227	Z227	X228	Y228	Z228	X229	Y229	Z229	X230	Y230	Z230	X231	Y231	Z231
																																																																																																																																																																																																																																																																																																																																																																																																																																																																																																																																																																																																																																																																																																																						
76	0.5	-334.4234619	1545.610962	1298.21167	-332.8287964	1521.549927	1158.925049	-461.1174927	1543.044922	1305.828857	-483.7139282	1518.428345	1179.976929	-400.3659058	1406.409302	1148.532104	-393.230957	1226.104126	1085.506226	-406.6029358	1338.715088	1265.826538	-407.6837769	1302.340576	1286.337036	-507.8301697	1267.840332	1076.010254	-254.0824127	1379.831299	1181.795898	-145.9816895	1189.254028	1152.140747	-88.57746887	1113.652588	1172.487061	-42.29379272	1070.366333	1193.628296	47.37727737	939.6029663	1269.8573	21.0045948	947.7427368	1333.93042	76.48021698	898.8426514	1351.39917	-554.5108643	1367.93103	1174.783203	-622.5487061	1281.947021	1155.43103	-694.3330688	1093.178955	1144.394165	-817.9279175	952.5541992	1199.911743	-843.5448608	910.357666	1217.952393	-843.3563232	935.8248901	1283.639038	-901.9865723	884.392334	1292.771729	-393.7480774	971.6967163	1080.986084	-254.3448181	934.2097778	1267.561157	-540.5861816	934.2514038	1258.544067	-206.4316864	643.6657715	1237.532471	-191.1421051	553.411499	1156.016357	-235.5224762	567.0324097	1291.668457	-202.9268494	258.3160706	1178.802002	-188.1146088	179.6865692	1086.729126	-227.6511841	178.5597229	1223.341309	-275.5158081	39.3736763	1091.231201	-226.2889252	38.89746094	1252.053711	-583.7427368	661.0548096	1196.492432	-555.1564941	589.642334	1099.277954	-582.7251587	572.2470093	1239.357666	-577.0968018	267.634613	1153.347778	-555.1791992	202.9219666	1053.309448	-571.2611084	182.4533997	1193.135986	-495.2308044	41.29467773	1085.12793	-539.8502808	39.89309311	1246.241577	-395.3896484	848.7553101	1197.714722	-395.8562317	845.7094116	1212.51123	-382.8009949	848.753479	1198.111328	-396.1709595	972.1201782	1223.085083	-393.5775452	959.6129761	1139.749023	-393.7719727	958.3438721	1145.914185	-387.2832031	959.6120605	1139.947388	-393.9682007	1021.29541	1152.434204	-281.6691895	469.714386	1217.920166	-274.9335938	472.4174805	1255.51709	-244.3187408	474.3808594	1210.893188	-332.4486084	848.8091431	1199.761719	-498.680542	474.0226135	1205.90918	-505.8795776	475.8081665	1242.870728	-461.8965149	470.2620544	1213.255249	-458.3306274	848.7014771	1195.667969	-266.4338379	45.45895386	1149.491821	-248.4183044	40.70549393	1182.974365	-231.5164185	49.6472168	1131.298828	-280.4624023	436.1099243	1212.500122	-505.3856506	50.52010345	1142.056152	-521.0578003	45.36673355	1177.881348	-469.1969299	47.6230545	1157.470581	-499.2116699	440.4777527	1200.851563	-227.0273132	49.23261642	1252.767212	-227.9780731	62.54098129	1253.685913	-214.2788544	50.41029739	1248.900513	-266.3133545	55.24100876	1125.070068	-539.5025024	50.05652618	1247.197632	-539.0516357	63.23237991	1248.437012	-526.7283325	49.29920197	1250.601929	-504.9196472	60.85385132	1119.83313	-214.129425	47.60635757	1294.796997	-214.429657	51.80900192	1295.087158	-210.1035919	47.97825623	1293.575928	-226.5355835	49.5039711	1254.47168	-550.8665771	46.8514328	1289.126465	-550.7242432	51.01223373	1289.517822	-546.8326416	46.6123085	1290.201538	-539.9453735	50.26098633	1248.906128	-409.8996887	1443.538696	1128.002686	-392.3561096	1484.201172	1349.484009	-184.8844452	1448.947754	1109.186157	-418.5912781	1665.647949	1087.913452	-257.7393799	1333.050781	1179.111206	-178.6522522	1318.35791	1327.405762	-244.6126251	1500.969482	1188.747803	-406.1807251	1340.071777	1258.97229	-546.7642822	1321.653931	1172.05957	-631.2728882	1299.182007	1313.516602	-519.3538818	1157.908447	1162.422241	-406.1807251	1340.071777	1258.97229	-406.1806641	1340.071777	1258.97229	-416.2853088	1307.607178	1422.98999	-573.3174438	1337.521362	1248.170654	-401.5898438	1175.762817	1226.732788	-120.6238632	1095.234253	1170.816162	-209.2653198	1053.07373	914.3179932	-341.459137	964.4979248	1268.622192	-257.7394409	1333.050781	1179.111206	29.85369873	938.289978	1300.79248	35.4158287	791.2548218	1116.810547	-159.5778503	826.1449585	1384.689941	-110.0904083	1084.248047	1179.914551	95.80034637	833.4450684	1391.909058	207.9797668	933.1270752	1425.418945	177.717804	781.3425293	1272.667725	29.85373688	938.2900391	1300.79248	-662.3024292	1077.323486	1153.967407	-502.3121948	1017.229492	943.8112793	-847.8497314	1177.648438	984.0238037	-546.7642822	1321.653931	1172.05957	-838.5344238	918.4403687	1252.584839	-779.7995605	752.7911377	1090.667236	-1002.226624	1006.948425	1102.658325	-674.6386719	1066.20166	1160.870605	-935.6271362	826.4821777	1340.887817	-1059.161499	921.7767334	1304.295898	-904.1150513	916.7228394	1469.512573	-838.5344238	918.4403076	1252.584839	-0.355411947	1.768998146	-11.62104321	0.355411947	-1.768998146	-11.62104321	-4.265330791	-17.08255005	-2.693932056	-2.021276951	-15.13926411	-4.845761299	7.711508751	-12.04082394	-14.12630939	6.08364296	-9.259839058	-13.38539696	-3.237499952	-16.47463608	-12.70997047	-3.112900019	-11.41845894	-10.96895981	0.64131546	10.62763977	-5.676223755	0.30490604	8.179068565	-3.398279905	2.34E-15	7.95E-16	7.95E-16	5.07E-15	1.19E-15	7.95E-16	5.69E-16	0	-9.29118824	5.34E-16	0	-8.725607872	1.137257814	-8.415000916	21.30120277	-1.137257814	8.415000916	21.30120277	-1.244205594	1.677141905	0.445720255	1.244205594	-1.677141905	0.445720255	-29.07003021	-29.49629784	-6.207897186	-1.03E-15	4.84E-12	-35.15758133	10.99670601	123.6010284	-1.581049919	-26.59924889	-40.59871292	-7.767269135	6.88E-15	2.15E-12	-34.44874573	8.234230042	115.7327881	-7.22670126	1.570516944	-3.459717751	-11.10114956	-1.570516944	3.459717751	-11.10114956	2.205350637	4.458134174	-10.23135662	-2.205350637	-4.458134174	-10.23135662	5.82E-21	9.50E-05	3.56E-37	-6.11E-21	-9.97E-05	-3.74E-37	1.57E-21	2.57E-05	9.64E-38	-9.34E-22	-1.53E-05	-5.72E-38	-3.38E-21	-5.52E-05	-2.07E-37	1.39E-21	2.27E-05	8.51E-38	3.74E-20	0.000611017	2.29E-36	3.74E-20	0.000611017	2.29E-36	3.10E-19	0.005055847	1.90E-35	3.10E-19	0.005055847	1.90E-35	-2.34E-21	-3.82E-05	-1.43E-37	-1.05E-20	-0.000170763	-6.40E-37	2.95E-22	4.82E-06	1.81E-38	1.14E-20	0.000186719	7.00E-37	-9.07E-23	-1.48E-06	-5.55E-39	5.34E-22	8.73E-06	3.27E-38	-398.0210266	1.304700017	259.0899963	-231.4150085	1.697000027	-251.3170013	-396.9869995	4.582600117	-949.9620361	0	0	0	0	0	0	-0.192960456	1.563743114	-0.111300968	0.157292932	1.569730282	-0.074405462	-0.063365005	0.590415955	0.074147552	0.0439426	0.591610014	0.078250356	-0.012533027	-0.006380027	0.141545266	0.00813611	-0.011599072	0.141538307	-0.000470606	4.458296776	0.919076443	-0.000470606	4.458296776	0.919076443	-0.138486728	8.844565392	1.752183795	-0.138486728	8.844565392	1.752183795	0.233924553	0.424929917	0.074978791	-0.181716174	0.442314297	0.108551957	0.103001557	0.133843437	0.13469629	-0.079815455	0.133453265	0.149514377	0.019909356	0.040183716	-0.038239382	-0.033158336	0.033774029	-0.034917522	0	0	0	0	0	0	0	0	0	0	0	0	-59.14082336	-2.543012142	13.55145359	-46.23305893	-1.682896137	5.116312027	-15.1155262	0.799799681	10.2351284	-10.40391636	0.541800022	11.22953224	-1.303361058	0.730846763	7.590538979	-0.93460381	0.510730743	7.552433014	-14.07260609	-2.884485483	-72.08181	14.07260609	2.884485483	-72.08181	-78.06707001	-30.01582527	927.5750122	78.06707001	30.01582527	927.5750122	-57.19430161	-9.86639595	36.25413132	-44.03794861	-7.76236248	45.33809662	-16.49016953	-0.453671247	22.14579582	-12.96573639	-0.519079566	25.20627403	-1.161805034	3.89E-16	-2.232558727	-2.016436815	-2.37E-16	-2.1206007	-226.9257813	480.033905	1207.370728	-552.6013184	482.1852112	1195.012573	-230.5980682	46.51509857	1130.359985	-541.6754761	47.07082748	1125.68457	-281.6691895	469.714386	1217.920044	-498.680542	474.022583	1205.90918	-266.5846863	49.65950012	1150.169312	-505.3192444	54.7131958	1142.688232	-195.0074921	673.2611694	1187.760132	-588.8577881	672.6437378	1178.750122	-168.6958771	253.3492432	1126.416992	-610.8648071	254.1901245	1125.210571	-398.0210266	1.304700017	259.0899963	-231.4150085	1.697000027	-251.3170013	-396.9869995	4.582600117	-949.9620361	-397.8459167	934.2332153	1236.209717	-397.8459167	2.44E-14	1236.209717	0	0	0	0	0	0	0	0	0	0	0	0	-332.4486084	848.8091431	1199.761475	-458.330719	848.7015381	1195.667969	-0.192960441	1.563743114	-0.111300968
77	0.506666667	-334.421936	1545.609985	1298.237305	-332.8382874	1521.551147	1158.950684	-461.1173401	1543.039551	1305.869751	-483.7232971	1518.423218	1180.0177	-400.3733826	1406.405396	1148.565308	-393.2388	1226.098633	1085.542725	-406.5976868	1338.714478	1265.86084	-407.6757202	1302.34021	1286.372437	-507.8399658	1267.830444	1076.056519	-254.0852356	1379.832275	1181.815063	-145.983078	1189.257446	1152.15271	-88.57505035	1113.657349	1172.495361	-42.28745651	1070.372314	1193.631958	47.39409256	939.612854	1269.855591	21.02993202	947.7555542	1333.932739	76.50980377	898.857605	1351.392456	-554.5137329	1367.923584	1174.828125	-622.552002	1281.937866	1155.483887	-694.3326416	1093.166626	1144.457153	-817.9110718	952.5332642	1200.007202	-843.5270996	910.3383179	1218.049927	-843.3300781	935.805603	1283.738403	-901.9549561	884.3713989	1292.885376	-393.7500916	971.6993408	1081.034302	-254.3443604	934.2037354	1267.606323	-540.586731	934.2478638	1258.590332	-206.4343262	643.6620483	1237.568481	-191.1434326	553.4124146	1156.041626	-235.523819	567.0248413	1291.695801	-202.927948	258.3155823	1178.811646	-188.1161652	179.6904907	1086.735596	-227.6521912	178.5567322	1223.347656	-275.5176697	39.37525558	1091.230469	-226.2887115	38.89712906	1252.053467	-583.7451782	661.0522461	1196.524414	-555.1589966	589.6456299	1099.30481	-582.7277832	572.2424927	1239.384888	-577.0961914	267.6351929	1153.356689	-555.1777344	202.9277344	1053.317871	-571.2616577	182.4517517	1193.142822	-495.2302856	41.29701996	1085.129028	-539.8516235	39.89220047	1246.242676	-395.3905945	848.7532959	1197.756836	-395.8571777	845.7067871	1212.553223	-382.8019409	848.7513428	1198.153442	-396.1708374	972.1170654	1223.132324	-393.5778809	959.6133423	1139.795776	-393.7722778	958.3439941	1145.960938	-387.2835388	959.6123657	1139.994019	-393.9679871	1021.295288	1152.483398	-281.6689758	469.7117004	1217.935913	-274.93396	472.4121704	1255.533203	-244.3185425	474.3788147	1210.909912	-332.4495544	848.8065796	1199.803467	-498.6830139	474.0194397	1205.929321	-505.8819885	475.8028259	1242.891113	-461.8988647	470.2583008	1213.275146	-458.3316345	848.7000122	1195.710327	-266.4352722	45.45972824	1149.493042	-248.4196014	40.70506668	1182.97522	-231.5180359	49.64851379	1131.300049	-280.4623108	436.1077271	1212.514771	-505.3863525	50.52046585	1142.060913	-521.05896	45.36578369	1177.885498	-469.1979675	47.62293243	1157.475708	-499.2139893	440.4749451	1200.870483	-227.0271606	49.23226929	1252.76709	-227.9780426	62.54060745	1253.686035	-214.2787933	50.41014099	1248.900269	-266.315155	55.24247742	1125.070679	-539.5038452	50.05561447	1247.198853	-539.0529785	63.23145676	1248.438599	-526.7296753	49.29817581	1250.603394	-504.9189453	60.85565948	1119.835205	-214.1284943	47.60551071	1294.796631	-214.428772	51.80814743	1295.086914	-210.1026917	47.97748566	1293.575562	-226.5350342	49.5039444	1254.471436	-550.8685303	46.84984207	1289.127563	-550.7261353	51.01063156	1289.519043	-546.8345947	46.61065674	1290.202637	-539.9469604	50.26032257	1248.907349	-409.9094238	1443.537354	1128.035645	-392.3486938	1484.19751	1349.515991	-184.8960266	1448.955933	1109.200073	-418.6135559	1665.646484	1087.950073	-257.741394	1333.051636	1179.131836	-178.6401672	1318.363892	1327.419922	-244.6175842	1500.971558	1188.763428	-406.1759644	1340.071045	1259.00647	-546.7658691	1321.646606	1172.10498	-631.2630615	1299.175537	1313.569214	-519.3511353	1157.901611	1162.469604	-406.1760864	1340.071045	1259.00647	-406.1760864	1340.071045	1259.00647	-416.2648926	1307.609741	1423.026245	-573.3141479	1337.515503	1248.220093	-401.583374	1175.761108	1226.770264	-120.6211929	1095.238159	1170.828613	-209.2897339	1053.068115	914.3414307	-341.4425964	964.4995728	1268.662598	-257.7413635	1333.051636	1179.131836	29.87465858	938.3012695	1300.793579	35.42032623	791.2603149	1116.815186	-159.5453949	826.1539307	1384.715332	-110.0864944	1084.252563	1179.926147	95.83735657	833.4628906	1391.899902	208.0170135	933.1463013	1425.388062	177.7346039	781.3607178	1272.649292	29.87465668	938.3012695	1300.793701	-662.2998047	1077.31189	1154.024048	-502.3531494	1017.235657	943.8279419	-847.8892822	1177.640625	984.1265869	-546.7658691	1321.646606	1172.105103	-838.5119629	918.4213257	1252.682495	-779.8135986	752.7719727	1090.742554	-1002.244812	1006.934448	1102.793579	-674.6346436	1066.189575	1160.930054	-935.5836792	826.4610596	1341.012207	-1059.132935	921.7490845	1304.439819	-904.0491943	916.7121582	1469.628174	-838.5119629	918.4212646	1252.682495	-0.35495013	1.768862724	-11.62345123	0.35495013	-1.768862724	-11.62345123	-4.265708923	-17.08360672	-2.694630384	-2.021468639	-15.1401453	-4.846713066	7.712069988	-12.03979111	-14.12480736	6.083469391	-9.259934425	-13.38436794	-3.238455772	-16.47584534	-12.70811939	-3.113629341	-11.41951752	-10.96777248	0.641373754	10.62680626	-5.677462101	0.305007607	8.17902565	-3.399437428	7.06E-15	-3.18E-15	-2.39E-15	-3.98E-15	2.43E-31	-2.43E-31	5.69E-16	0	-9.292307854	5.34E-16	0	-8.726802826	1.136321425	-8.414792061	21.29918289	-1.136321425	8.414792061	21.29918289	-1.245468616	1.671762109	0.449359864	1.245468616	-1.671762109	0.449359864	-29.06965828	-29.49736977	-6.207690716	-2.62E-15	2.57E-12	-35.15769577	10.99463463	123.59935	-1.579655647	-26.59938049	-40.58992767	-7.766232491	5.19E-16	3.75E-12	-34.45161819	8.235082626	115.7272263	-7.228170395	1.571146607	-3.454308271	-11.09996414	-1.571146607	3.454308271	-11.09996414	2.208540916	4.462491035	-10.23042488	-2.208540916	-4.462491035	-10.23042488	5.44E-21	8.88E-05	3.33E-37	-5.94E-21	-9.71E-05	-3.64E-37	1.58E-21	2.59E-05	9.70E-38	-5.96E-22	-9.73E-06	-3.65E-38	-3.36E-21	-5.49E-05	-2.06E-37	1.42E-21	2.32E-05	8.70E-38	3.76E-20	0.0006139	2.30E-36	3.76E-20	0.0006139	2.30E-36	3.14E-19	0.00512879	1.92E-35	3.14E-19	0.00512879	1.92E-35	-2.09E-21	-3.41E-05	-1.28E-37	-1.06E-20	-0.000172845	-6.48E-37	2.50E-22	4.09E-06	1.53E-38	1.14E-20	0.000186653	7.00E-37	-8.17E-23	-1.33E-06	-5.00E-39	4.44E-22	7.25E-06	2.72E-38	-398.0210266	1.304700017	259.0899963	-231.4150085	1.697000027	-251.3170013	-396.9869995	4.582600117	-949.9620361	0	0	0	0	0	0	-0.192987427	1.563750982	-0.111182913	0.157317698	1.569732308	-0.074314132	-0.06337291	0.590412915	0.07416869	0.043949332	0.591606557	0.078269012	-0.012534173	-0.006381176	0.141545013	0.008136911	-0.011600576	0.141538009	-0.000430487	4.458257675	0.919263899	-0.000430487	4.458257675	0.919263899	-0.138748616	8.844602585	1.752004266	-0.138748616	8.844602585	1.752004266	0.233927757	0.424924582	0.074996002	-0.181736395	0.442321122	0.108519405	0.103002369	0.133836895	0.134701416	-0.079833277	0.133458167	0.149509281	0.019910272	0.040182002	-0.038240094	-0.033156548	0.033776917	-0.034920678	0	0	0	0	0	0	0	0	0	0	0	0	-59.14722824	-2.543135643	13.51688004	-46.23931885	-1.68315959	5.089630604	-15.11717415	0.799891889	10.23968983	-10.40531349	0.541841984	11.234025	-1.303359509	0.730912745	7.590455532	-0.934582293	0.510767996	7.552175999	-14.06671619	-2.884827852	-72.15675354	14.06671619	2.884827852	-72.15675354	-78.10616302	-30.04428101	927.5977173	78.10616302	30.04428101	927.5977173	-57.19456482	-9.866431236	36.258564	-44.04704666	-7.766125202	45.33157349	-16.49034691	-0.453557283	22.14652824	-12.97130108	-0.519194186	25.20534515	-1.161848783	3.07E-15	-2.232498646	-2.016302586	9.60E-16	-2.120831013	-226.9256744	480.0332642	1207.388062	-552.6038208	482.1827393	1195.033325	-230.5995636	46.51662445	1130.361084	-541.6759033	47.07184219	1125.688721	-281.6689758	469.7117004	1217.935913	-498.6830139	474.0194397	1205.929321	-266.5860901	49.66024399	1150.170654	-505.3199463	54.71352386	1142.693115	-195.0079041	673.260376	1187.791626	-588.8598022	672.6431274	1178.782227	-168.697113	253.3499908	1126.425049	-610.8652954	254.1903229	1125.221191	-398.0210266	1.304700017	259.0899963	-231.4150085	1.697000027	-251.3170013	-396.9869995	4.582600117	-949.9620361	-397.8432922	934.2312012	1236.239258	-397.8432922	2.44E-14	1236.239258	0	0	0	0	0	0	0	0	0	0	0	0	-332.4495239	848.8065186	1199.803467	-458.331665	848.7000732	1195.710327	-0.192987427	1.563750982	-0.111182913
